# Blender 4.0.2
# www.blender.org
o Text.004
v -0.297692 1.000000 0.118087
v 0.429214 1.000000 0.004950
v -0.005657 1.000000 -0.429921
v -0.067882 1.000000 -0.367696
v 0.239002 1.000000 -0.060811
v -0.487904 1.000000 0.052326
v -0.072125 1.000000 0.468105
v -0.009899 1.000000 0.405879
v -0.029769 0.100000 0.011809
v 0.042921 0.100000 0.000495
v -0.000566 0.100000 -0.042992
v -0.006788 0.100000 -0.036770
v 0.023900 0.100000 -0.006081
v -0.048790 0.100000 0.005233
v -0.007213 0.100000 0.046810
v -0.000990 0.100000 0.040588
v 1.000000 0.382000 -0.333000
v 1.000000 0.382000 -0.215000
v 1.000000 0.122000 -0.002000
v 1.000000 0.382000 0.212000
v 1.000000 0.382000 0.331000
v 1.000000 0.053000 0.058000
v 1.000000 -0.300000 0.352000
v 1.000000 -0.300000 0.233000
v 1.000000 -0.018000 -0.002000
v 1.000000 -0.300000 -0.234000
v 1.000000 -0.300000 -0.352000
v 1.000000 0.053000 -0.061000
v 0.100000 0.038200 -0.033300
v 0.100000 0.038200 -0.021500
v 0.100000 0.012200 -0.000200
v 0.100000 0.038200 0.021200
v 0.100000 0.038200 0.033100
v 0.100000 0.005300 0.005800
v 0.100000 -0.030000 0.035200
v 0.100000 -0.030000 0.023300
v 0.100000 -0.001800 -0.000200
v 0.100000 -0.030000 -0.023400
v 0.100000 -0.030000 -0.035200
v 0.100000 0.005300 -0.006100
v 0.001000 0.147000 -1.000000
v 0.184000 0.382000 -1.000000
v 0.302000 0.382000 -1.000000
v 0.049000 0.061000 -1.000000
v 0.049000 -0.300000 -1.000000
v -0.049000 -0.300000 -1.000000
v -0.049000 0.060000 -1.000000
v -0.302000 0.382000 -1.000000
v -0.184000 0.382000 -1.000000
v 0.000100 0.014700 -0.100000
v 0.018400 0.038200 -0.100000
v 0.030200 0.038200 -0.100000
v 0.004900 0.006100 -0.100000
v 0.004900 -0.030000 -0.100000
v -0.004900 -0.030000 -0.100000
v -0.004900 0.006000 -0.100000
v -0.030200 0.038200 -0.100000
v -0.018400 0.038200 -0.100000
v -0.050000 -0.050000 0.050000
v -0.050000 0.050000 0.050000
v -0.050000 -0.050000 -0.050000
v -0.050000 0.050000 -0.050000
v 0.050000 -0.050000 0.050000
v 0.050000 0.050000 0.050000
v 0.050000 -0.050000 -0.050000
v 0.050000 0.050000 -0.050000
vn -0.0000 1.0000 -0.0000
vn -0.0000 -1.0000 -0.0000
vn -0.6758 -0.2944 -0.6758
vn 0.1534 -0.0707 0.9856
vn 0.6773 -0.2873 -0.6773
vn 0.6784 0.2821 -0.6784
vn -0.6606 -0.3568 0.6606
vn 0.6809 -0.2696 0.6809
vn -0.6917 0.2074 0.6917
vn -0.1537 -0.0233 -0.9878
vn 1.0000 -0.0000 -0.0000
vn -1.0000 -0.0000 -0.0000
vn -0.3568 0.9342 -0.0000
vn -0.0756 0.6319 0.7713
vn -0.0788 0.6335 -0.7697
vn -0.0108 -0.6385 0.7695
vn -0.0782 0.6380 0.7660
vn -0.2873 -0.9578 -0.0000
vn -0.0099 -0.6353 0.7722
vn -0.0131 -0.6401 -0.7682
vn -0.0805 0.6340 -0.7691
vn -0.0132 -0.6371 -0.7706
vn -0.0000 -0.0000 -1.0000
vn -0.0000 -0.0000 1.0000
vn -0.7858 0.6120 0.0892
vn -0.0000 0.9342 0.3568
vn 0.7854 -0.6190 0.0007
vn -0.0000 -0.9578 0.2873
vn 0.7825 0.6160 0.0913
vn 0.9988 -0.0000 0.0489
vn -0.7863 -0.6178 0.0015
vn -0.9988 -0.0000 0.0489
vn -0.3569 0.9342 -0.0000
vn -0.0000 0.9342 0.3569
vt 0.740705 0.628916
vt 0.570355 0.603422
vt 0.740706 0.603422
vt 0.622793 0.628916
vt 0.696090 0.775511
vt 0.748528 0.801006
vt 0.570355 0.775511
vt 0.570355 0.801005
vt 0.282441 0.625042
vt 0.282441 0.622493
vt 0.299476 0.622493
vt 0.294232 0.625042
vt 0.286902 0.639702
vt 0.281658 0.642251
vt 0.299476 0.639702
vt 0.299476 0.642251
vt 0.196390 0.583838
vt 0.062887 0.340132
vt 0.064850 0.338505
vt 0.207043 0.050569
vt 0.045211 0.280122
vt 0.000000 0.000000
vt 0.000000 0.622493
vt 0.176761 0.600107
vt 0.075210 0.292434
vt 0.065915 0.285179
vt 0.320296 0.138539
vt 0.082488 0.310182
vt 0.077240 0.293976
vt 0.299990 0.123124
vt 0.285350 0.494981
vt 0.073746 0.329620
vt 0.372771 0.300607
vt 0.475039 0.722204
vt 0.570355 0.766819
vt 0.570355 0.801295
vt 0.495030 0.704821
vt 0.570355 0.608926
vt 0.570355 0.643112
vt 0.475039 0.687728
vt 0.372771 0.807379
vt 0.454470 0.704821
vt 0.372771 0.603422
vt 0.372771 0.772903
vt 0.372771 0.637608
vt 0.272127 0.631010
vt 0.281658 0.623101
vt 0.281658 0.626549
vt 0.274126 0.632748
vt 0.281658 0.638919
vt 0.281658 0.642338
vt 0.272127 0.634458
vt 0.261900 0.622493
vt 0.270070 0.632748
vt 0.261900 0.642888
vt 0.261900 0.625940
vt 0.261900 0.639470
vt 0.707704 0.399681
vt 0.436642 0.314812
vt 0.437041 0.311417
vt 0.698826 0.302712
vt 0.436153 0.301720
vt 0.437090 0.292009
vt 0.708192 0.205604
vt 0.436701 0.288583
vt 0.704304 0.171348
vt 0.608780 0.092509
vt 0.427149 0.280699
vt 0.417539 0.271491
vt 0.512683 0.000427
vt 0.478210 0.000000
vt 0.414092 0.271448
vt 0.372771 0.589344
vt 0.414033 0.331791
vt 0.477624 0.603422
vt 0.372771 0.013875
vt 0.403548 0.272836
vt 0.607807 0.511716
vt 0.417452 0.331758
vt 0.427051 0.322620
vt 0.703713 0.433634
vt 0.511809 0.603098
vt 0.073297 0.727079
vt 0.034186 0.820076
vt -0.000000 0.820076
vt 0.087203 0.751994
vt 0.174986 0.820076
vt 0.140800 0.820076
vt 0.101689 0.726789
vt 0.073297 0.622493
vt 0.101689 0.622493
vt 0.309644 0.632951
vt 0.316974 0.642251
vt 0.313556 0.642251
vt 0.308254 0.635443
vt 0.302894 0.642251
vt 0.299476 0.642251
vt 0.306805 0.632922
vt 0.309644 0.622493
vt 0.306805 0.622493
vt 0.718094 0.282608
vt 0.980647 0.291018
vt 0.708192 0.368328
vt 0.981009 0.294417
vt 0.711818 0.402322
vt 0.799547 0.481849
vt 0.989782 0.302370
vt 0.708192 0.196528
vt 0.981009 0.270439
vt 0.980647 0.273838
vt 0.901727 -0.000000
vt 0.997403 0.255332
vt 0.875754 0.011469
vt 0.981637 0.282446
vt 0.997409 0.309527
vt 0.875812 0.553416
vt 0.799716 0.082854
vt 0.711818 0.162535
vt 0.989799 0.262471
vt 0.203957 0.738378
vt 0.232929 0.709406
vt 0.232929 0.738378
vt 0.261900 0.680435
vt 0.261900 0.709406
vt 0.232929 0.680435
vt 0.203957 0.651464
vt 0.232929 0.651464
vt 0.174986 0.680435
vt 0.203957 0.709406
vt 0.174986 0.709406
vt 0.232929 0.622493
vt 0.203957 0.622493
vt 0.203957 0.680435
vt 0.045211 0.342371
vt 0.403548 0.330383
vt 1.000000 0.254185
s 0
f 8/1/1 6/2/1 7/3/1
f 8/1/1 1/4/1 6/2/1
f 1/4/1 5/5/1 6/2/1
f 2/6/1 5/5/1 1/4/1
f 2/6/1 4/7/1 5/5/1
f 2/6/1 3/8/1 4/7/1
f 16/9/2 15/10/2 14/11/2
f 16/9/2 14/11/2 9/12/2
f 9/12/2 14/11/2 13/13/2
f 10/14/2 9/12/2 13/13/2
f 10/14/2 13/13/2 12/15/2
f 10/14/2 12/15/2 11/16/2
f 4/17/3 11/18/3 12/19/3
f 1/20/4 10/21/4 2/22/4
f 2/23/5 11/18/5 3/24/5
f 1/20/6 16/25/6 9/26/6
f 7/27/7 14/28/7 15/29/7
f 8/30/8 15/29/8 16/25/8
f 5/31/9 12/19/9 13/32/9
f 5/31/10 14/28/10 6/33/10
f 22/34/11 20/35/11 21/36/11
f 22/34/11 19/37/11 20/35/11
f 19/37/11 17/38/11 18/39/11
f 19/37/11 28/40/11 17/38/11
f 22/34/11 28/40/11 19/37/11
f 23/41/11 28/40/11 22/34/11
f 23/41/11 25/42/11 28/40/11
f 25/42/11 27/43/11 28/40/11
f 23/41/11 24/44/11 25/42/11
f 26/45/11 27/43/11 25/42/11
f 34/46/12 33/47/12 32/48/12
f 34/46/12 32/48/12 31/49/12
f 31/49/12 30/50/12 29/51/12
f 31/49/12 29/51/12 40/52/12
f 34/46/12 31/49/12 40/52/12
f 35/53/12 34/46/12 40/52/12
f 35/53/12 40/52/12 37/54/12
f 37/54/12 40/52/12 39/55/12
f 35/53/12 37/54/12 36/56/12
f 38/57/12 37/54/12 39/55/12
f 18/58/13 29/59/13 30/60/13
f 19/61/14 30/60/14 31/62/14
f 19/61/15 32/63/15 20/64/15
f 20/64/13 33/65/13 21/66/13
f 22/67/16 33/65/16 34/68/16
f 22/67/17 35/69/17 23/70/17
f 24/71/18 35/69/18 36/72/18
f 25/73/19 38/74/19 26/75/19
f 25/76/20 36/72/20 37/77/20
f 28/78/21 39/79/21 40/80/21
f 28/78/22 29/59/22 17/81/22
f 26/75/18 39/79/18 27/82/18
f 44/83/23 42/84/23 43/85/23
f 44/83/23 41/86/23 42/84/23
f 41/86/23 48/87/23 49/88/23
f 41/86/23 47/89/23 48/87/23
f 44/83/23 47/89/23 41/86/23
f 45/90/23 47/89/23 44/83/23
f 45/90/23 46/91/23 47/89/23
f 53/92/24 52/93/24 51/94/24
f 53/92/24 51/94/24 50/95/24
f 50/95/24 58/96/24 57/97/24
f 50/95/24 57/97/24 56/98/24
f 53/92/24 50/95/24 56/98/24
f 54/99/24 53/92/24 56/98/24
f 54/99/24 56/98/24 55/100/24
f 41/101/25 51/102/25 42/103/25
f 42/103/26 52/104/26 43/105/26
f 44/106/27 52/104/27 53/107/27
f 49/108/26 57/109/26 58/110/26
f 45/111/28 55/112/28 46/113/28
f 41/101/29 58/110/29 50/114/29
f 44/106/30 54/115/30 45/116/30
f 47/117/31 57/109/31 48/118/31
f 47/117/32 55/112/32 56/119/32
f 59/120/12 62/121/12 61/122/12
f 62/121/23 65/123/23 61/124/23
f 66/125/11 63/126/11 65/127/11
f 63/128/24 60/129/24 59/130/24
f 61/131/2 63/126/2 59/132/2
f 62/121/1 64/133/1 66/125/1
f 4/17/3 3/24/3 11/18/3
f 1/20/4 9/26/4 10/21/4
f 2/23/5 10/134/5 11/18/5
f 1/20/6 8/30/6 16/25/6
f 7/27/7 6/33/7 14/28/7
f 8/30/8 7/27/8 15/29/8
f 5/31/9 4/17/9 12/19/9
f 5/31/10 13/32/10 14/28/10
f 18/58/33 17/81/33 29/59/33
f 19/61/14 18/58/14 30/60/14
f 19/61/15 31/62/15 32/63/15
f 20/64/33 32/63/33 33/65/33
f 22/67/16 21/66/16 33/65/16
f 22/67/17 34/68/17 35/69/17
f 24/71/18 23/70/18 35/69/18
f 25/73/19 37/135/19 38/74/19
f 25/76/20 24/71/20 36/72/20
f 28/78/21 27/82/21 39/79/21
f 28/78/22 40/80/22 29/59/22
f 26/75/18 38/74/18 39/79/18
f 41/101/25 50/114/25 51/102/25
f 42/103/26 51/102/26 52/104/26
f 44/106/27 43/105/27 52/104/27
f 49/108/34 48/118/34 57/109/34
f 45/111/28 54/136/28 55/112/28
f 41/101/29 49/108/29 58/110/29
f 44/106/30 53/107/30 54/115/30
f 47/117/31 56/119/31 57/109/31
f 47/117/32 46/113/32 55/112/32
f 59/120/12 60/129/12 62/121/12
f 62/121/23 66/125/23 65/123/23
f 66/125/11 64/133/11 63/126/11
f 63/128/24 64/133/24 60/129/24
f 61/131/2 65/127/2 63/126/2
f 62/121/1 60/129/1 64/133/1
