# Blender 4.0.2
# www.blender.org
o Cube
v -0.578973 0.983052 0.656602
v -0.594146 0.985712 0.643076
v -0.583479 0.983028 0.656092
v -0.587613 0.983325 0.654250
v -0.590970 0.983914 0.651257
v -0.593221 0.984736 0.647407
v -0.588172 1.005037 0.627716
v -0.601824 1.021343 0.488504
v -0.588052 1.025187 0.473812
v -0.601332 1.022377 0.484115
v -0.599472 1.023368 0.480100
v -0.596425 1.024218 0.476849
v -0.592490 1.024845 0.474683
v -0.594013 1.032146 0.510114
v -0.499748 0.989571 0.639276
v -0.513519 0.985727 0.653968
v -0.500239 0.988537 0.643665
v -0.502100 0.987546 0.647681
v -0.505146 0.986696 0.650931
v -0.509081 0.986069 0.653097
v -0.507899 1.008318 0.624485
v -0.522598 1.027862 0.471178
v -0.507425 1.025201 0.484704
v -0.518092 1.027886 0.471688
v -0.513958 1.027589 0.473530
v -0.510601 1.027000 0.476523
v -0.508350 1.026177 0.480373
v -0.513740 1.035426 0.506883
v -0.579438 0.997813 0.660028
v -0.583945 0.997790 0.659517
v -0.588079 0.998087 0.657676
v -0.591436 0.998675 0.654683
v -0.593687 0.999498 0.650833
v -0.594611 1.000474 0.646501
v -0.592955 1.039607 0.478109
v -0.588518 1.039949 0.477238
v -0.596890 1.038980 0.480275
v -0.599937 1.038129 0.483525
v -0.601797 1.037139 0.487541
v -0.602289 1.036105 0.491930
v -0.508816 1.040939 0.483799
v -0.507891 1.039963 0.488130
v -0.511067 1.041762 0.479949
v -0.514423 1.042350 0.476956
v -0.518557 1.042647 0.475114
v -0.523064 1.042624 0.474604
v -0.509547 1.000831 0.656523
v -0.513985 1.000489 0.657394
v -0.505612 1.001457 0.654357
v -0.502565 1.002308 0.651106
v -0.500705 1.003298 0.647090
v -0.500213 1.004332 0.642702
v -0.545926 1.005064 0.633338
v -0.544222 1.005018 0.633767
v -0.542634 1.004896 0.634511
v -0.541224 1.004701 0.635542
v -0.540045 1.004442 0.636820
v -0.539143 1.004128 0.638295
v -0.538552 1.003771 0.639912
v -0.538296 1.003386 0.641608
v -0.538383 1.002986 0.643317
v -0.538811 1.002588 0.644975
v -0.539563 1.002206 0.646517
v -0.540611 1.001856 0.647884
v -0.541914 1.001550 0.649024
v -0.543421 1.001301 0.649893
v -0.545076 1.001118 0.650457
v -0.546814 1.001008 0.650695
v -0.548569 1.000975 0.650598
v -0.550272 1.001021 0.650168
v -0.551860 1.001144 0.649424
v -0.553271 1.001339 0.648394
v -0.554449 1.001598 0.647116
v -0.555352 1.001912 0.645640
v -0.555942 1.002268 0.644024
v -0.556199 1.002654 0.642328
v -0.556112 1.003053 0.640619
v -0.555683 1.003452 0.638961
v -0.554931 1.003833 0.637419
v -0.553884 1.004184 0.636052
v -0.552581 1.004489 0.634912
v -0.551073 1.004738 0.634043
v -0.549419 1.004921 0.633479
v -0.547681 1.005031 0.633241
v -0.548035 1.006677 0.626100
v -0.546712 0.999151 0.658711
v -0.546992 1.038079 0.490935
v -0.547440 1.038071 0.490910
v -0.568530 1.036978 0.492752
v -0.546151 1.038036 0.491235
v -0.546556 1.038068 0.491045
v -0.545790 1.037986 0.491498
v -0.545489 1.037920 0.491825
v -0.545258 1.037840 0.492202
v -0.545107 1.037749 0.492615
v -0.545041 1.037650 0.493049
v -0.568831 1.037045 0.492426
v -0.545064 1.037548 0.493486
v -0.545173 1.037446 0.493910
v -0.545365 1.037349 0.494304
v -0.545633 1.037259 0.494653
v -0.545966 1.037181 0.494945
v -0.546352 1.037117 0.495167
v -0.546775 1.037071 0.495311
v -0.569598 1.037126 0.491972
v -0.547219 1.037042 0.495372
v -0.569192 1.037094 0.492162
v -0.570482 1.037129 0.491838
v -0.570033 1.037138 0.491862
v -0.568299 1.036898 0.493130
v -0.568148 1.036807 0.493543
v -0.568083 1.036708 0.493976
v -0.568105 1.036606 0.494413
v -0.568214 1.036505 0.494837
v -0.568407 1.036407 0.495231
v -0.568675 1.036317 0.495581
v -0.569008 1.036239 0.495872
v -0.569393 1.036176 0.496094
v -0.569816 1.036129 0.496238
v -0.570260 1.036101 0.496299
v -0.570709 1.036092 0.496274
v -0.571144 1.036104 0.496165
v -0.571550 1.036135 0.495974
v -0.571911 1.036185 0.495711
v -0.572212 1.036251 0.495384
v -0.572443 1.036332 0.495007
v -0.572594 1.036423 0.494594
v -0.572659 1.036521 0.494160
v -0.572637 1.036623 0.493724
v -0.572527 1.036725 0.493300
v -0.572335 1.036823 0.492906
v -0.572067 1.036912 0.492556
v -0.571734 1.036991 0.492265
v -0.571349 1.037054 0.492043
v -0.570926 1.037101 0.491898
v -0.561387 1.037501 0.491471
v -0.561165 1.036472 0.495933
v -0.561613 1.036464 0.495908
v -0.562049 1.036476 0.495799
v -0.562455 1.036507 0.495608
v -0.562815 1.036557 0.495345
v -0.563117 1.036623 0.495018
v -0.563347 1.036703 0.494641
v -0.563498 1.036795 0.494228
v -0.563564 1.036893 0.493794
v -0.563542 1.036995 0.493357
v -0.563432 1.037097 0.492934
v -0.563240 1.037195 0.492540
v -0.562972 1.037284 0.492190
v -0.562639 1.037362 0.491899
v -0.562254 1.037426 0.491677
v -0.561831 1.037473 0.491532
v -0.555791 1.041286 0.475921
v -0.553877 1.033786 0.508499
v -0.554413 1.037786 0.491191
v -0.554192 1.036757 0.495652
v -0.569629 1.033142 0.509133
v -0.571241 1.040655 0.476543
vn 0.0483 -0.2244 0.9733
vn 0.9984 0.0408 -0.0402
vn -0.0307 0.9737 0.2260
vn -0.9984 -0.0408 0.0402
vn -0.0483 0.2244 -0.9733
vn -0.1084 -0.2280 0.9676
vn -0.4102 -0.2184 0.8855
vn -0.6718 -0.1875 0.7166
vn -0.8676 -0.1382 0.4777
vn -0.9785 -0.0754 0.1919
vn -0.2039 0.2152 -0.9550
vn -0.4963 0.1814 -0.8490
vn -0.7401 0.1298 -0.6598
vn -0.9115 0.0655 -0.4061
vn -0.9936 -0.0052 -0.1126
vn 0.9785 0.0754 -0.1919
vn 0.8676 0.1382 -0.4777
vn 0.6718 0.1875 -0.7166
vn 0.4102 0.2184 -0.8855
vn 0.1084 0.2280 -0.9676
vn 0.2039 -0.2152 0.9550
vn 0.4963 -0.1814 0.8490
vn 0.7401 -0.1298 0.6598
vn 0.9115 -0.0655 0.4061
vn 0.9936 0.0052 0.1126
vn 0.0307 -0.9737 -0.2260
vt 0.782482 0.260216
vt 0.782482 0.152859
vt 0.832135 0.045502
vt 0.718640 0.555104
vt 0.768293 0.034999
vt 0.768293 0.555104
vt 0.798631 0.992905
vt 0.718640 0.992905
vt 0.850304 0.597198
vt 0.654798 0.565607
vt 0.704451 0.045502
vt 0.704451 0.565607
vt 0.654798 0.805090
vt 0.654798 0.754753
vt 0.704451 0.648129
vt 0.782482 0.045502
vt 0.832135 0.030832
vt 0.782482 0.030832
vt 0.832135 0.017598
vt 0.782482 0.017598
vt 0.832135 0.007095
vt 0.654798 0.593512
vt 0.704451 0.580278
vt 0.704451 0.593512
vt 0.654798 0.580278
vt 0.704451 0.861377
vt 0.654798 0.875677
vt 0.654798 0.861377
vt 0.704451 0.875677
vt 0.654798 0.888034
vt 0.704451 0.007095
vt 0.654798 0.017597
vt 0.654798 0.007095
vt 0.704451 0.017597
vt 0.654798 0.030832
vt 0.704451 0.030832
vt 0.654798 0.045502
vt 0.718640 0.569775
vt 0.768293 0.569775
vt 0.718640 0.583009
vt 0.704451 0.607701
vt 0.654798 0.619357
vt 0.654798 0.607701
vt 0.704451 0.619357
vt 0.654798 0.633288
vt 0.704451 0.633288
vt 0.654798 0.648129
vt 0.832135 0.260216
vt 0.782482 0.274886
vt 0.832135 0.274886
vt 0.782482 0.288121
vt 0.832135 0.288121
vt 0.782482 0.298623
vt 0.768293 0.007095
vt 0.718640 0.020329
vt 0.718640 0.007095
vt 0.768293 0.020329
vt 0.718640 0.034999
vt 0.039899 0.619825
vt 0.026664 0.016161
vt 0.316757 0.054569
vt 0.355083 0.116783
vt 0.363750 0.009418
vt 0.378421 0.007095
vt 0.350516 0.016161
vt 0.340013 0.026664
vt 0.333270 0.039899
vt 0.330946 0.054569
vt 0.355083 0.512490
vt 0.378421 0.622148
vt 0.363750 0.619825
vt 0.350516 0.613082
vt 0.340013 0.602579
vt 0.333270 0.589344
vt 0.330946 0.574674
vt 0.618409 0.512490
vt 0.640609 0.574674
vt 0.638285 0.589344
vt 0.631542 0.602579
vt 0.621039 0.613082
vt 0.607805 0.619825
vt 0.593134 0.622148
vt 0.618409 0.116783
vt 0.593134 0.007095
vt 0.607805 0.009418
vt 0.621039 0.016161
vt 0.631542 0.026664
vt 0.638285 0.039899
vt 0.640609 0.054569
vt 0.457381 0.063391
vt 0.457946 0.069120
vt 0.481017 0.034591
vt 0.515547 0.057663
vt 0.492475 0.092192
vt 0.516111 0.063391
vt 0.432221 0.556243
vt 0.442028 0.560306
vt 0.437966 0.570113
vt 0.427587 0.563178
vt 0.427731 0.564643
vt 0.464929 0.570685
vt 0.485778 0.622148
vt 0.436558 0.570540
vt 0.457567 0.561714
vt 0.442455 0.561714
vt 0.435074 0.512490
vt 0.518184 0.563178
vt 0.518040 0.561714
vt 0.463465 0.570540
vt 0.513550 0.556243
vt 0.981967 0.597198
vt 0.981967 0.992905
vt 0.850303 0.992905
vt 0.718640 0.597198
vt 0.782482 0.007095
vt 0.704451 0.888034
vt 0.768293 0.583009
vt 0.832135 0.298623
vt 0.316757 0.574674
vt 0.314434 0.589344
vt 0.307690 0.602579
vt 0.297187 0.613082
vt 0.283953 0.619825
vt 0.269283 0.622148
vt 0.054569 0.622148
vt 0.026664 0.613082
vt 0.016161 0.602579
vt 0.009418 0.589344
vt 0.007095 0.574674
vt 0.007095 0.054569
vt 0.009418 0.039899
vt 0.016161 0.026664
vt 0.039899 0.009418
vt 0.054569 0.007095
vt 0.269283 0.007095
vt 0.283953 0.009418
vt 0.297187 0.016161
vt 0.307690 0.026664
vt 0.314434 0.039899
vt 0.485778 0.007095
vt 0.486746 0.034027
vt 0.475509 0.036262
vt 0.486746 0.092756
vt 0.486746 0.116783
vt 0.481017 0.092192
vt 0.470432 0.038975
vt 0.465982 0.042627
vt 0.475509 0.090521
vt 0.470432 0.087807
vt 0.462330 0.047077
vt 0.465982 0.084155
vt 0.462330 0.079706
vt 0.459617 0.052154
vt 0.457946 0.057663
vt 0.459617 0.074629
vt 0.492475 0.034591
vt 0.497984 0.036262
vt 0.503060 0.038975
vt 0.507510 0.042627
vt 0.511162 0.047077
vt 0.513876 0.052154
vt 0.515547 0.069120
vt 0.513876 0.074629
vt 0.511162 0.079706
vt 0.507510 0.084155
vt 0.503060 0.087807
vt 0.497984 0.090521
vt 0.435093 0.570685
vt 0.433629 0.570540
vt 0.432221 0.570113
vt 0.430923 0.569420
vt 0.429785 0.568486
vt 0.428852 0.567349
vt 0.428158 0.566051
vt 0.427731 0.561714
vt 0.428158 0.560306
vt 0.428852 0.559008
vt 0.429785 0.557870
vt 0.430923 0.556937
vt 0.433629 0.555816
vt 0.435093 0.555672
vt 0.436558 0.555816
vt 0.437966 0.556243
vt 0.439263 0.556937
vt 0.440401 0.557870
vt 0.441335 0.559008
vt 0.442600 0.563178
vt 0.442455 0.564643
vt 0.442028 0.566051
vt 0.441335 0.567349
vt 0.440401 0.568486
vt 0.439264 0.569420
vt 0.435095 0.622148
vt 0.457423 0.563178
vt 0.457567 0.564643
vt 0.457994 0.566051
vt 0.458688 0.567349
vt 0.459621 0.568486
vt 0.460759 0.569420
vt 0.462057 0.570113
vt 0.487803 0.570685
vt 0.486746 0.512490
vt 0.487803 0.555672
vt 0.464929 0.555672
vt 0.463465 0.555816
vt 0.462057 0.556243
vt 0.460759 0.556937
vt 0.459621 0.557870
vt 0.458688 0.559008
vt 0.457994 0.560306
vt 0.510677 0.570685
vt 0.512142 0.570540
vt 0.510677 0.555672
vt 0.513550 0.570113
vt 0.514848 0.569420
vt 0.512142 0.555816
vt 0.515985 0.568486
vt 0.514848 0.556937
vt 0.515985 0.557870
vt 0.516919 0.567349
vt 0.517612 0.566051
vt 0.516919 0.559008
vt 0.517612 0.560306
vt 0.518040 0.564643
s 0
f 48/1/1 86/2/1 1/3/1
f 42/4/2 15/5/2 23/6/2
f 157/7/3 14/8/3 85/9/3
f 34/10/4 8/11/4 2/12/4
f 158/13/5 153/14/5 22/15/5
f 29/16/6 3/17/6 1/3/6
f 30/18/7 4/19/7 3/17/7
f 31/20/8 5/21/8 4/19/8
f 32/22/9 6/23/9 5/24/9
f 33/25/10 2/12/10 6/23/10
f 9/26/11 35/27/11 36/28/11
f 13/29/12 37/30/12 35/27/12
f 12/31/13 38/32/13 37/33/13
f 11/34/14 39/35/14 38/32/14
f 10/36/15 40/37/15 39/35/15
f 23/6/16 41/38/16 42/4/16
f 27/39/17 43/40/17 41/38/17
f 26/41/18 44/42/18 43/43/18
f 25/44/19 45/45/19 44/42/19
f 24/46/20 46/47/20 45/45/20
f 16/48/21 47/49/21 48/1/21
f 20/50/22 49/51/22 47/49/22
f 19/52/23 50/53/23 49/51/23
f 18/54/24 51/55/24 50/56/24
f 17/57/25 52/58/25 51/55/25
f 24/59/26 19/60/26 2/61/26
f 7/62/3 30/63/3 29/64/3
f 7/62/3 31/65/3 30/63/3
f 7/62/3 32/66/3 31/65/3
f 7/62/3 33/67/3 32/66/3
f 7/62/3 34/68/3 33/67/3
f 14/69/3 36/70/3 35/71/3
f 14/69/3 35/71/3 37/72/3
f 14/69/3 37/72/3 38/73/3
f 14/69/3 38/73/3 39/74/3
f 14/69/3 39/74/3 40/75/3
f 28/76/3 42/77/3 41/78/3
f 28/76/3 41/78/3 43/79/3
f 28/76/3 43/79/3 44/80/3
f 28/76/3 44/80/3 45/81/3
f 28/76/3 45/81/3 46/82/3
f 21/83/3 48/84/3 47/85/3
f 21/83/3 47/85/3 49/86/3
f 21/83/3 49/86/3 50/87/3
f 21/83/3 50/87/3 51/88/3
f 21/83/3 51/88/3 52/89/3
f 7/62/3 40/75/3 34/68/3
f 76/90/3 77/91/3 7/62/3
f 21/83/3 42/77/3 28/76/3
f 69/92/3 61/93/3 53/94/3
f 21/83/3 60/95/3 61/93/3
f 122/96/3 114/97/3 105/98/3
f 14/69/3 128/99/3 129/100/3
f 136/101/3 153/102/3 109/103/3
f 144/104/3 113/105/3 157/106/3
f 96/107/3 98/108/3 28/76/3
f 152/109/3 144/104/3 103/110/3
f 1/3/1 16/48/1 48/1/1
f 86/2/1 29/16/1 1/3/1
f 42/4/2 52/58/2 15/5/2
f 85/9/3 21/111/3 28/112/3
f 85/9/3 28/112/3 154/113/3
f 14/8/3 7/114/3 85/9/3
f 85/9/3 154/113/3 157/7/3
f 34/10/4 40/37/4 8/11/4
f 22/15/5 9/26/5 36/28/5
f 22/15/5 36/28/5 158/13/5
f 153/14/5 46/47/5 22/15/5
f 29/16/6 30/18/6 3/17/6
f 30/18/7 31/20/7 4/19/7
f 31/20/8 32/115/8 5/21/8
f 32/22/9 33/25/9 6/23/9
f 33/25/10 34/10/10 2/12/10
f 9/26/11 13/29/11 35/27/11
f 13/29/12 12/116/12 37/30/12
f 12/31/13 11/34/13 38/32/13
f 11/34/14 10/36/14 39/35/14
f 10/36/15 8/11/15 40/37/15
f 23/6/16 27/39/16 41/38/16
f 27/39/17 26/117/17 43/40/17
f 26/41/18 25/44/18 44/42/18
f 25/44/19 24/46/19 45/45/19
f 24/46/20 22/15/20 46/47/20
f 16/48/21 20/50/21 47/49/21
f 20/50/22 19/52/22 49/51/22
f 19/52/23 18/118/23 50/53/23
f 18/54/24 17/57/24 51/55/24
f 17/57/25 15/5/25 52/58/25
f 2/61/26 8/119/26 10/120/26
f 10/120/26 11/121/26 12/122/26
f 12/122/26 13/123/26 9/124/26
f 9/124/26 22/125/26 24/59/26
f 24/59/26 25/126/26 26/127/26
f 26/127/26 27/128/26 23/129/26
f 23/129/26 15/130/26 17/131/26
f 17/131/26 18/132/26 19/60/26
f 19/60/26 20/133/26 16/134/26
f 16/134/26 1/135/26 3/136/26
f 3/136/26 4/137/26 5/138/26
f 5/138/26 6/139/26 2/61/26
f 2/61/26 10/120/26 12/122/26
f 12/122/26 9/124/26 24/59/26
f 24/59/26 26/127/26 23/129/26
f 23/129/26 17/131/26 19/60/26
f 19/60/26 16/134/26 3/136/26
f 3/136/26 5/138/26 2/61/26
f 2/61/26 12/122/26 24/59/26
f 24/59/26 23/129/26 19/60/26
f 19/60/26 3/136/26 2/61/26
f 7/62/3 14/69/3 40/75/3
f 7/62/3 29/64/3 86/140/3
f 86/140/3 68/141/3 69/92/3
f 86/140/3 69/92/3 70/142/3
f 84/143/3 85/144/3 7/62/3
f 83/145/3 84/143/3 7/62/3
f 86/140/3 70/142/3 71/146/3
f 86/140/3 71/146/3 72/147/3
f 82/148/3 83/145/3 7/62/3
f 81/149/3 82/148/3 7/62/3
f 7/62/3 86/140/3 72/147/3
f 7/62/3 72/147/3 73/150/3
f 80/151/3 81/149/3 7/62/3
f 79/152/3 80/151/3 7/62/3
f 7/62/3 73/150/3 74/153/3
f 7/62/3 74/153/3 75/154/3
f 78/155/3 79/152/3 7/62/3
f 77/91/3 78/155/3 7/62/3
f 7/62/3 75/154/3 76/90/3
f 21/83/3 52/89/3 42/77/3
f 53/94/3 84/143/3 83/145/3
f 83/145/3 82/148/3 81/149/3
f 81/149/3 80/151/3 79/152/3
f 79/152/3 78/155/3 77/91/3
f 77/91/3 76/90/3 75/154/3
f 75/154/3 74/153/3 73/150/3
f 73/150/3 72/147/3 71/146/3
f 71/146/3 70/142/3 69/92/3
f 69/92/3 68/141/3 67/156/3
f 67/156/3 66/157/3 65/158/3
f 65/158/3 64/159/3 63/160/3
f 63/160/3 62/161/3 61/93/3
f 61/93/3 60/95/3 59/162/3
f 59/162/3 58/163/3 57/164/3
f 57/164/3 56/165/3 55/166/3
f 55/166/3 54/167/3 53/94/3
f 53/94/3 83/145/3 81/149/3
f 81/149/3 79/152/3 77/91/3
f 77/91/3 75/154/3 73/150/3
f 73/150/3 71/146/3 69/92/3
f 69/92/3 67/156/3 65/158/3
f 65/158/3 63/160/3 61/93/3
f 61/93/3 59/162/3 57/164/3
f 57/164/3 55/166/3 53/94/3
f 53/94/3 81/149/3 77/91/3
f 77/91/3 73/150/3 69/92/3
f 69/92/3 65/158/3 61/93/3
f 61/93/3 57/164/3 53/94/3
f 53/94/3 77/91/3 69/92/3
f 86/140/3 48/84/3 21/83/3
f 21/83/3 85/144/3 84/143/3
f 21/83/3 84/143/3 53/94/3
f 67/156/3 68/141/3 86/140/3
f 66/157/3 67/156/3 86/140/3
f 21/83/3 53/94/3 54/167/3
f 21/83/3 54/167/3 55/166/3
f 65/158/3 66/157/3 86/140/3
f 64/159/3 65/158/3 86/140/3
f 21/83/3 55/166/3 56/165/3
f 21/83/3 56/165/3 57/164/3
f 64/159/3 86/140/3 21/83/3
f 63/160/3 64/159/3 21/83/3
f 21/83/3 57/164/3 58/163/3
f 21/83/3 58/163/3 59/162/3
f 62/161/3 63/160/3 21/83/3
f 61/93/3 62/161/3 21/83/3
f 21/83/3 59/162/3 60/95/3
f 105/98/3 109/103/3 108/168/3
f 108/168/3 135/169/3 134/170/3
f 134/170/3 133/171/3 132/172/3
f 132/172/3 131/173/3 130/174/3
f 130/174/3 129/100/3 128/99/3
f 128/99/3 127/175/3 126/176/3
f 126/176/3 125/177/3 124/178/3
f 124/178/3 123/179/3 122/96/3
f 122/96/3 121/180/3 120/181/3
f 120/181/3 119/182/3 118/183/3
f 118/183/3 117/184/3 116/185/3
f 116/185/3 115/186/3 114/97/3
f 114/97/3 113/105/3 112/187/3
f 112/187/3 111/188/3 110/189/3
f 110/189/3 89/190/3 97/191/3
f 97/191/3 107/192/3 105/98/3
f 105/98/3 108/168/3 134/170/3
f 134/170/3 132/172/3 130/174/3
f 130/174/3 128/99/3 126/176/3
f 126/176/3 124/178/3 122/96/3
f 122/96/3 120/181/3 118/183/3
f 118/183/3 116/185/3 114/97/3
f 114/97/3 112/187/3 110/189/3
f 110/189/3 97/191/3 105/98/3
f 105/98/3 134/170/3 130/174/3
f 130/174/3 126/176/3 122/96/3
f 122/96/3 118/183/3 114/97/3
f 114/97/3 110/189/3 105/98/3
f 105/98/3 130/174/3 122/96/3
f 135/169/3 108/168/3 158/193/3
f 158/193/3 36/70/3 14/69/3
f 14/69/3 157/106/3 120/181/3
f 14/69/3 120/181/3 121/180/3
f 134/170/3 135/169/3 158/193/3
f 133/171/3 134/170/3 158/193/3
f 14/69/3 121/180/3 122/96/3
f 14/69/3 122/96/3 123/179/3
f 133/171/3 158/193/3 14/69/3
f 132/172/3 133/171/3 14/69/3
f 14/69/3 123/179/3 124/178/3
f 14/69/3 124/178/3 125/177/3
f 131/173/3 132/172/3 14/69/3
f 130/174/3 131/173/3 14/69/3
f 14/69/3 125/177/3 126/176/3
f 14/69/3 126/176/3 127/175/3
f 129/100/3 130/174/3 14/69/3
f 14/69/3 127/175/3 128/99/3
f 111/188/3 112/187/3 145/194/3
f 111/188/3 145/194/3 146/195/3
f 110/189/3 111/188/3 146/195/3
f 110/189/3 146/195/3 147/196/3
f 89/190/3 110/189/3 147/196/3
f 89/190/3 147/196/3 148/197/3
f 97/191/3 89/190/3 148/197/3
f 97/191/3 148/197/3 149/198/3
f 107/192/3 97/191/3 149/198/3
f 107/192/3 149/198/3 150/199/3
f 105/98/3 107/192/3 150/199/3
f 105/98/3 150/199/3 151/200/3
f 158/193/3 108/168/3 109/103/3
f 109/103/3 105/98/3 151/200/3
f 109/103/3 151/200/3 152/109/3
f 153/102/3 158/193/3 109/103/3
f 136/101/3 155/201/3 153/102/3
f 109/103/3 152/109/3 136/101/3
f 157/106/3 154/202/3 156/203/3
f 157/106/3 156/203/3 137/204/3
f 119/182/3 120/181/3 157/106/3
f 118/183/3 119/182/3 157/106/3
f 157/106/3 137/204/3 138/205/3
f 157/106/3 138/205/3 139/206/3
f 117/184/3 118/183/3 157/106/3
f 116/185/3 117/184/3 157/106/3
f 157/106/3 139/206/3 140/207/3
f 157/106/3 140/207/3 141/208/3
f 115/186/3 116/185/3 157/106/3
f 114/97/3 115/186/3 157/106/3
f 157/106/3 141/208/3 142/209/3
f 157/106/3 142/209/3 143/210/3
f 113/105/3 114/97/3 157/106/3
f 145/194/3 112/187/3 113/105/3
f 157/106/3 143/210/3 144/104/3
f 144/104/3 145/194/3 113/105/3
f 28/76/3 46/82/3 153/102/3
f 153/102/3 155/201/3 88/211/3
f 153/102/3 88/211/3 87/212/3
f 156/203/3 154/202/3 28/76/3
f 106/213/3 156/203/3 28/76/3
f 153/102/3 87/212/3 91/214/3
f 153/102/3 91/214/3 90/215/3
f 104/216/3 106/213/3 28/76/3
f 103/110/3 104/216/3 28/76/3
f 28/76/3 153/102/3 90/215/3
f 28/76/3 90/215/3 92/217/3
f 102/218/3 103/110/3 28/76/3
f 101/219/3 102/218/3 28/76/3
f 28/76/3 92/217/3 93/220/3
f 28/76/3 93/220/3 94/221/3
f 100/222/3 101/219/3 28/76/3
f 99/223/3 100/222/3 28/76/3
f 28/76/3 94/221/3 95/224/3
f 28/76/3 95/224/3 96/107/3
f 98/108/3 99/223/3 28/76/3
f 91/214/3 87/212/3 88/211/3
f 155/201/3 136/101/3 152/109/3
f 91/214/3 88/211/3 155/201/3
f 92/217/3 90/215/3 91/214/3
f 94/221/3 93/220/3 92/217/3
f 96/107/3 95/224/3 94/221/3
f 99/223/3 98/108/3 96/107/3
f 101/219/3 100/222/3 99/223/3
f 103/110/3 102/218/3 101/219/3
f 106/213/3 104/216/3 103/110/3
f 138/205/3 137/204/3 156/203/3
f 156/203/3 106/213/3 103/110/3
f 103/110/3 101/219/3 99/223/3
f 99/223/3 96/107/3 94/221/3
f 94/221/3 92/217/3 91/214/3
f 91/214/3 155/201/3 152/109/3
f 152/109/3 151/200/3 150/199/3
f 150/199/3 149/198/3 148/197/3
f 148/197/3 147/196/3 146/195/3
f 146/195/3 145/194/3 144/104/3
f 144/104/3 143/210/3 142/209/3
f 142/209/3 141/208/3 140/207/3
f 140/207/3 139/206/3 138/205/3
f 138/205/3 156/203/3 103/110/3
f 103/110/3 99/223/3 94/221/3
f 94/221/3 91/214/3 152/109/3
f 152/109/3 150/199/3 148/197/3
f 148/197/3 146/195/3 144/104/3
f 144/104/3 142/209/3 140/207/3
f 140/207/3 138/205/3 103/110/3
f 103/110/3 94/221/3 152/109/3
f 152/109/3 148/197/3 144/104/3
f 144/104/3 140/207/3 103/110/3
