# Blender 4.0.2
# www.blender.org
mtllib wood table.mtl
o Cube.001
v -0.943714 0.884975 1.325092
v -0.943714 0.829743 1.325092
v -0.943714 0.884975 -0.174908
v -0.943714 0.829743 -0.174908
v -0.033152 0.884975 1.325092
v -0.033152 0.829743 1.325092
v -0.033152 0.884975 -0.174908
v -0.033152 0.829743 -0.174908
vn -1.0000 -0.0000 -0.0000
vn -0.0000 -0.0000 -1.0000
vn 1.0000 -0.0000 -0.0000
vn -0.0000 -0.0000 1.0000
vn -0.0000 1.0000 -0.0000
vn -0.0000 -1.0000 -0.0000
vt 0.373270 0.732931
vt 0.447102 0.659100
vt 0.373270 0.659100
vt 0.373270 0.806763
vt 0.447102 0.732931
vt 0.373270 0.880594
vt 0.447102 0.806763
vt 0.373270 0.954426
vt 0.447102 0.880594
vt 0.299439 0.880594
vt 0.299439 0.806763
vt 0.520933 0.806763
vt 0.447102 0.954426
vt 0.520933 0.880594
s 0
usemtl Material
f 3/1/1 2/2/1 1/3/1
f 7/4/2 4/5/2 3/1/2
f 5/6/3 8/7/3 7/4/3
f 1/8/4 6/9/4 5/6/4
f 1/10/5 7/4/5 3/11/5
f 6/9/6 4/12/6 8/7/6
f 3/1/1 4/5/1 2/2/1
f 7/4/2 8/7/2 4/5/2
f 5/6/3 6/9/3 8/7/3
f 1/8/4 2/13/4 6/9/4
f 1/10/5 5/6/5 7/4/5
f 6/9/6 2/14/6 4/12/6
o Cube.003
v -0.037147 0.533554 1.317760
v -0.037147 0.478323 1.317760
v -0.037147 0.533554 -0.182240
v -0.037147 0.478323 -0.182240
v 0.268293 0.533554 1.317760
v 0.268293 0.478323 1.317760
v 0.268293 0.533554 -0.182240
v 0.268293 0.478323 -0.182240
vn -1.0000 -0.0000 -0.0000
vn -0.0000 -0.0000 -1.0000
vn 1.0000 -0.0000 -0.0000
vn -0.0000 -0.0000 1.0000
vn -0.0000 1.0000 -0.0000
vn -0.0000 -1.0000 -0.0000
vt 0.688306 0.736044
vt 0.762137 0.662213
vt 0.688306 0.662213
vt 0.688306 0.809876
vt 0.762137 0.736044
vt 0.688306 0.883707
vt 0.762137 0.809876
vt 0.688306 0.957539
vt 0.762137 0.883707
vt 0.614474 0.883707
vt 0.614474 0.809876
vt 0.835969 0.809876
vt 0.762137 0.957539
vt 0.835969 0.883707
s 0
usemtl Material
f 11/15/7 10/16/7 9/17/7
f 15/18/8 12/19/8 11/15/8
f 13/20/9 16/21/9 15/18/9
f 9/22/10 14/23/10 13/20/10
f 9/24/11 15/18/11 11/25/11
f 14/23/12 12/26/12 16/21/12
f 11/15/7 12/19/7 10/16/7
f 15/18/8 16/21/8 12/19/8
f 13/20/9 14/23/9 16/21/9
f 9/22/10 10/27/10 14/23/10
f 9/24/11 13/20/11 15/18/11
f 14/23/12 10/28/12 12/26/12
o Cube.006
v 0.227645 0.137737 -0.099041
v -0.552620 0.833898 -0.099041
v 0.227645 0.137737 -0.136071
v -0.552620 0.833898 -0.136071
v 0.094466 0.137737 -0.099041
v -0.685799 0.833898 -0.099041
v 0.094466 0.137737 -0.136071
v -0.685799 0.833898 -0.136071
vn 0.6657 0.7462 -0.0000
vn -0.0000 -0.0000 -1.0000
vn -0.6657 -0.7462 -0.0000
vn -0.0000 -0.0000 1.0000
vn -0.0000 -1.0000 -0.0000
vn -0.0000 1.0000 -0.0000
vt 0.101844 0.210689
vt 0.175676 0.284521
vt 0.175676 0.210689
vt 0.101844 0.358352
vt 0.101844 0.284521
vt 0.101844 0.432183
vt 0.175676 0.358352
vt 0.175676 0.506015
vt 0.175676 0.432183
vt 0.028013 0.432183
vt 0.028013 0.358352
vt 0.249507 0.358352
vt 0.101844 0.506015
vt 0.249507 0.432183
s 0
usemtl Material
f 17/29/13 20/30/13 18/31/13
f 23/32/14 20/30/14 19/33/14
f 21/34/15 24/35/15 23/32/15
f 21/34/16 18/36/16 22/37/16
f 17/38/17 23/32/17 19/39/17
f 22/37/18 20/40/18 24/35/18
f 17/29/13 19/33/13 20/30/13
f 23/32/14 24/35/14 20/30/14
f 21/34/15 22/37/15 24/35/15
f 21/34/16 17/41/16 18/36/16
f 17/38/17 21/34/17 23/32/17
f 22/37/18 18/42/18 20/40/18
o Cube.007
v 0.227645 0.137737 1.286254
v -0.552620 0.833898 1.286254
v 0.227645 0.137737 1.249224
v -0.552620 0.833898 1.249224
v 0.094466 0.137737 1.286254
v -0.685799 0.833898 1.286254
v 0.094466 0.137737 1.249224
v -0.685799 0.833898 1.249224
vn 0.6657 0.7462 -0.0000
vn -0.0000 -0.0000 -1.0000
vn -0.6657 -0.7462 -0.0000
vn -0.0000 -0.0000 1.0000
vn -0.0000 -1.0000 -0.0000
vn -0.0000 1.0000 -0.0000
vt 0.381522 0.215708
vt 0.455353 0.289539
vt 0.455353 0.215708
vt 0.381522 0.363370
vt 0.381522 0.289539
vt 0.381522 0.437202
vt 0.455353 0.363370
vt 0.455353 0.511033
vt 0.455353 0.437202
vt 0.307691 0.437202
vt 0.307691 0.363370
vt 0.529185 0.363370
vt 0.381522 0.511033
vt 0.529185 0.437202
s 0
usemtl Material
f 25/43/19 28/44/19 26/45/19
f 31/46/20 28/44/20 27/47/20
f 29/48/21 32/49/21 31/46/21
f 29/48/22 26/50/22 30/51/22
f 25/52/23 31/46/23 27/53/23
f 30/51/24 28/54/24 32/49/24
f 25/43/19 27/47/19 28/44/19
f 31/46/20 32/49/20 28/44/20
f 29/48/21 30/51/21 32/49/21
f 29/48/22 25/55/22 26/50/22
f 25/52/23 29/48/23 31/46/23
f 30/51/24 26/56/24 28/54/24
o Cube.005
v -1.204511 0.137737 1.242249
v -0.424246 0.833898 1.242249
v -1.204511 0.137737 1.205219
v -0.424246 0.833898 1.205219
v -1.071331 0.137737 1.242249
v -0.291066 0.833898 1.242249
v -1.071331 0.137737 1.205219
v -0.291066 0.833898 1.205219
vn -0.6657 0.7462 -0.0000
vn -0.0000 -0.0000 -1.0000
vn 0.6657 -0.7462 -0.0000
vn -0.0000 -0.0000 1.0000
vn -0.0000 -1.0000 -0.0000
vn -0.0000 1.0000 -0.0000
vt 0.240044 0.763353
vt 0.313875 0.689521
vt 0.313875 0.763353
vt 0.240044 0.615690
vt 0.240044 0.689521
vt 0.240044 0.541858
vt 0.313875 0.615690
vt 0.313875 0.468027
vt 0.313875 0.541858
vt 0.166212 0.541858
vt 0.166212 0.615690
vt 0.387706 0.615690
vt 0.240044 0.468027
vt 0.387706 0.541858
s 0
usemtl Material
f 33/57/25 34/59/25 36/58/25
f 39/60/26 35/61/26 36/58/26
f 37/62/27 39/60/27 40/63/27
f 37/62/28 38/65/28 34/64/28
f 33/66/29 35/67/29 39/60/29
f 38/65/30 40/63/30 36/68/30
f 33/57/25 36/58/25 35/61/25
f 39/60/26 36/58/26 40/63/26
f 37/62/27 40/63/27 38/65/27
f 37/62/28 34/64/28 33/69/28
f 33/66/29 39/60/29 37/62/29
f 38/65/30 36/68/30 34/70/30
o Cube.008
v -1.204511 0.137737 -0.055035
v -0.424246 0.833898 -0.055035
v -1.204511 0.137737 -0.092065
v -0.424246 0.833898 -0.092065
v -1.071331 0.137737 -0.055035
v -0.291066 0.833898 -0.055035
v -1.071331 0.137737 -0.092065
v -0.291066 0.833898 -0.092065
vn -0.6657 0.7462 -0.0000
vn -0.0000 -0.0000 -1.0000
vn 0.6657 -0.7462 -0.0000
vn -0.0000 -0.0000 1.0000
vn -0.0000 -1.0000 -0.0000
vn -0.0000 1.0000 -0.0000
vt 0.537598 0.769121
vt 0.611429 0.695289
vt 0.611429 0.769121
vt 0.537598 0.621458
vt 0.537598 0.695289
vt 0.537598 0.547626
vt 0.611429 0.621458
vt 0.611429 0.473795
vt 0.611429 0.547626
vt 0.463766 0.547626
vt 0.463766 0.621458
vt 0.685260 0.621458
vt 0.537598 0.473795
vt 0.685260 0.547626
s 0
usemtl Material
f 41/71/31 42/73/31 44/72/31
f 47/74/32 43/75/32 44/72/32
f 45/76/33 47/74/33 48/77/33
f 45/76/34 46/79/34 42/78/34
f 41/80/35 43/81/35 47/74/35
f 46/79/36 48/77/36 44/82/36
f 41/71/31 44/72/31 43/75/31
f 47/74/32 44/72/32 48/77/32
f 45/76/33 48/77/33 46/79/33
f 45/76/34 42/78/34 41/83/34
f 41/80/35 47/74/35 45/76/35
f 46/79/36 44/82/36 42/84/36
o Cube.009
v -0.225929 0.137737 -0.055035
v 0.114778 0.481228 -0.055035
v -0.225929 0.137737 -0.092065
v 0.114778 0.481228 -0.092065
v -0.092750 0.137737 -0.055035
v 0.247957 0.481228 -0.055035
v -0.092750 0.137737 -0.092065
v 0.247957 0.481228 -0.092065
vn -0.7100 0.7042 -0.0000
vn -0.0000 -0.0000 -1.0000
vn 0.7100 -0.7042 -0.0000
vn -0.0000 -0.0000 1.0000
vn -0.0000 -1.0000 -0.0000
vn -0.0000 1.0000 -0.0000
vt 0.831613 0.698906
vt 0.905445 0.772738
vt 0.831613 0.772738
vt 0.831613 0.625075
vt 0.905445 0.698906
vt 0.831613 0.551244
vt 0.905445 0.625075
vt 0.905445 0.477412
vt 0.905445 0.551244
vt 0.757782 0.551244
vt 0.757782 0.625075
vt 0.979276 0.625075
vt 0.831613 0.477412
vt 0.979276 0.551244
s 0
usemtl Material
f 51/85/37 49/87/37 50/86/37
f 55/88/38 51/85/38 52/89/38
f 53/90/39 55/88/39 56/91/39
f 53/90/40 54/93/40 50/92/40
f 49/94/41 51/95/41 55/88/41
f 54/93/42 56/91/42 52/96/42
f 51/85/37 50/86/37 52/89/37
f 55/88/38 52/89/38 56/91/38
f 53/90/39 56/91/39 54/93/39
f 53/90/40 50/92/40 49/97/40
f 49/94/41 55/88/41 53/90/41
f 54/93/42 52/96/42 50/98/42
o Cube.010
v -0.750937 0.137737 -0.099041
v -1.091644 0.481228 -0.099041
v -0.750937 0.137737 -0.136071
v -1.091644 0.481228 -0.136071
v -0.884116 0.137737 -0.099041
v -1.224823 0.481228 -0.099041
v -0.884116 0.137737 -0.136071
v -1.224823 0.481228 -0.136071
vn 0.7100 0.7042 -0.0000
vn -0.0000 -0.0000 -1.0000
vn -0.7100 -0.7042 -0.0000
vn -0.0000 -0.0000 1.0000
vn -0.0000 -1.0000 -0.0000
vn -0.0000 1.0000 -0.0000
vt 0.555325 0.251868
vt 0.629157 0.325699
vt 0.555325 0.325699
vt 0.555325 0.178036
vt 0.629157 0.251868
vt 0.555325 0.104205
vt 0.629157 0.178036
vt 0.629157 0.030373
vt 0.629157 0.104205
vt 0.481494 0.104205
vt 0.481494 0.178036
vt 0.702988 0.178036
vt 0.555325 0.030373
vt 0.702988 0.104205
s 0
usemtl Material
f 59/99/43 58/100/43 57/101/43
f 63/102/44 60/103/44 59/99/44
f 61/104/45 64/105/45 63/102/45
f 61/104/46 58/106/46 62/107/46
f 57/108/47 63/102/47 59/109/47
f 62/107/48 60/110/48 64/105/48
f 59/99/43 60/103/43 58/100/43
f 63/102/44 64/105/44 60/103/44
f 61/104/45 62/107/45 64/105/45
f 61/104/46 57/111/46 58/106/46
f 57/108/47 61/104/47 63/102/47
f 62/107/48 58/112/48 60/110/48
o Cube.011
v -0.225929 0.137737 1.205219
v 0.114778 0.481228 1.205219
v -0.225929 0.137737 1.242249
v 0.114778 0.481228 1.242249
v -0.092750 0.137737 1.205219
v 0.247957 0.481228 1.205219
v -0.092750 0.137737 1.242249
v 0.247957 0.481228 1.242249
vn -0.7100 0.7042 -0.0000
vn -0.0000 -0.0000 1.0000
vn 0.7100 -0.7042 -0.0000
vn -0.0000 -0.0000 -1.0000
vn -0.0000 -1.0000 -0.0000
vn -0.0000 1.0000 -0.0000
vt 0.689839 0.293052
vt 0.763671 0.219221
vt 0.689839 0.219221
vt 0.689839 0.366884
vt 0.763671 0.293052
vt 0.689839 0.440715
vt 0.763671 0.366884
vt 0.763671 0.514547
vt 0.763671 0.440715
vt 0.616008 0.440715
vt 0.616008 0.366884
vt 0.837502 0.366884
vt 0.689839 0.514547
vt 0.837502 0.440715
s 0
usemtl Material
f 67/113/49 66/114/49 65/115/49
f 71/116/50 68/117/50 67/113/50
f 69/118/51 72/119/51 71/116/51
f 69/118/52 66/120/52 70/121/52
f 65/122/53 71/116/53 67/123/53
f 70/121/54 68/124/54 72/119/54
f 67/113/49 68/117/49 66/114/49
f 71/116/50 72/119/50 68/117/50
f 69/118/51 70/121/51 72/119/51
f 69/118/52 65/125/52 66/120/52
f 65/122/53 69/118/53 71/116/53
f 70/121/54 66/126/54 68/124/54
o Cube.012
v -0.750937 0.137737 1.249225
v -1.091644 0.481228 1.249225
v -0.750937 0.137737 1.286255
v -1.091644 0.481228 1.286255
v -0.884116 0.137737 1.249225
v -1.224823 0.481228 1.249225
v -0.884116 0.137737 1.286255
v -1.224823 0.481228 1.286255
vn 0.7100 0.7042 -0.0000
vn -0.0000 -0.0000 1.0000
vn -0.7100 -0.7042 -0.0000
vn -0.0000 -0.0000 -1.0000
vn -0.0000 -1.0000 -0.0000
vn -0.0000 1.0000 -0.0000
vt 0.238293 0.247284
vt 0.312124 0.321116
vt 0.238293 0.321116
vt 0.238293 0.173453
vt 0.312124 0.247284
vt 0.238293 0.099621
vt 0.312124 0.173453
vt 0.312124 0.025790
vt 0.312124 0.099621
vt 0.164461 0.099621
vt 0.164461 0.173453
vt 0.385956 0.173453
vt 0.238293 0.025790
vt 0.385956 0.099621
s 0
usemtl Material
f 75/127/55 73/129/55 74/128/55
f 79/130/56 75/127/56 76/131/56
f 77/132/57 79/130/57 80/133/57
f 77/132/58 78/135/58 74/134/58
f 73/136/59 75/137/59 79/130/59
f 78/135/60 80/133/60 76/138/60
f 75/127/55 74/128/55 76/131/55
f 79/130/56 76/131/56 80/133/56
f 77/132/57 80/133/57 78/135/57
f 77/132/58 74/134/58 73/139/58
f 73/136/59 79/130/59 77/132/59
f 78/135/60 76/138/60 74/140/60
o Cube.002
v -0.939718 0.533554 1.317760
v -0.939718 0.478323 1.317760
v -0.939718 0.533554 -0.182240
v -0.939718 0.478323 -0.182240
v -1.245159 0.533554 1.317760
v -1.245159 0.478323 1.317760
v -1.245159 0.533554 -0.182240
v -1.245159 0.478323 -0.182240
vn 1.0000 -0.0000 -0.0000
vn -0.0000 -0.0000 -1.0000
vn -1.0000 -0.0000 -0.0000
vn -0.0000 -0.0000 1.0000
vn -0.0000 1.0000 -0.0000
vn -0.0000 -1.0000 -0.0000
vt 0.104150 0.734431
vt 0.177982 0.660599
vt 0.104150 0.660599
vt 0.104150 0.808262
vt 0.177982 0.734431
vt 0.104150 0.882094
vt 0.177982 0.808262
vt 0.104150 0.955925
vt 0.177982 0.882094
vt 0.030319 0.882094
vt 0.030319 0.808262
vt 0.251813 0.808262
vt 0.177982 0.955925
vt 0.251813 0.882094
s 0
usemtl Material
f 83/141/61 81/143/61 82/142/61
f 87/144/62 83/141/62 84/145/62
f 85/146/63 87/144/63 88/147/63
f 81/148/64 85/146/64 86/149/64
f 81/150/65 83/151/65 87/144/65
f 86/149/66 88/147/66 84/152/66
f 83/141/61 82/142/61 84/145/61
f 87/144/62 84/145/62 88/147/62
f 85/146/63 88/147/63 86/149/63
f 81/148/64 86/149/64 82/153/64
f 81/150/65 87/144/65 85/146/65
f 86/149/66 84/152/66 82/154/66
